<svg xmlns="http://www.w3.org/2000/svg" width="301.165" height="302.656" viewBox="0 0 301.165 302.656"><defs><style>.a{opacity:0.09;}.b{fill:#fff;}</style></defs><g class="a" transform="translate(0 -10)"><g transform="translate(0 10)"><path class="b" d="M956.409,3.057a149.921,149.921,0,0,1-40.236-5.473l5.458-19.6a130.958,130.958,0,0,0,60.694,2.126L986.38.051A150.957,150.957,0,0,1,956.409,3.057Zm61.08-13-8.3-18.576a131.318,131.318,0,0,0,48.15-37.077l15.81,12.808A151.736,151.736,0,0,1,1017.49-9.944ZM885.837-14.588A152.176,152.176,0,0,1,833.3-61.207l16.664-11.679A131.687,131.687,0,0,0,895.43-32.529Zm205.017-65.633-18.179-9.126a130.775,130.775,0,0,0,13.963-59.2,135.221,135.221,0,0,0-.824-14.828l20.229-2.243a156.905,156.905,0,0,1,.941,17.061A150.819,150.819,0,0,1,1090.854-80.221Zm-273.3-9.563a151.747,151.747,0,0,1-11.735-58.766c0-3.459.123-6.989.356-10.489l20.3,1.373q-.3,4.517-.311,9.115a131.41,131.41,0,0,0,10.164,50.917ZM831.4-185.5l-19.543-5.677a152.4,152.4,0,0,1,34.686-61.06l14.894,13.866A131.944,131.944,0,0,0,831.4-185.5Zm248.3-5.468a131.994,131.994,0,0,0-32.31-51.507l14.278-14.5a152.5,152.5,0,0,1,37.305,59.483ZM882.805-256.86,871.234-273.6A149.978,149.978,0,0,1,936.8-298.881l2.645,20.169A129.611,129.611,0,0,0,882.805-256.86Zm142.426-3.149a129.571,129.571,0,0,0-57.55-19.319l1.75-20.27a149.969,149.969,0,0,1,66.63,22.361Z" transform="translate(-805.819 299.598)"/></g><g transform="translate(108.737 122.14)"><path class="b" d="M827.2-229.483v-19.4h76.737v19.4Zm28.668,28.663v-76.732h19.4v76.732Z" transform="translate(-827.196 277.552)"/></g></g></svg>