<svg id="Layer_1" data-name="Layer 1" xmlns="http://www.w3.org/2000/svg" viewBox="0 0 482 154"><defs><style>.cls-1{fill:#fff;}.cls-2{fill:#6b57f8;}</style></defs><path class="cls-1" d="M99.27,39.59a30.58,30.58,0,0,1,7.11-12.26c.55-.56,1.13-1.09,1.73-1.61A29,29,0,0,0,96,23.31a11.49,11.49,0,0,0-8.36,3.09,22.65,22.65,0,0,0-5.18,8.44h-.82l-1.3-10.1H66.53v62.5H82.67V57.06q0-8.79,3.53-13.13t11.43-4.34h1.64"/><path class="cls-1" d="M143.57,70.42Q147,65.95,147,56.91V55.06q0-9-3.45-13.5T132.43,37.1q-7.7,0-11.09,4.46T118,55.06v1.85q0,9,3.39,13.51t11.09,4.46Q140.13,74.88,143.57,70.42Zm-34.23,9.67q-7.59-7.75-7.58-24.1t7.58-24.11q7.57-7.75,23.09-7.76t23.15,7.76q7.63,7.77,7.64,24.11t-7.64,24.1q-7.65,7.77-23.15,7.77t-23.09-7.77"/><path class="cls-1" d="M163.05,24.74h16.61l6.71,25.66q1.06,4.17,3.65,17.95h.47q2.59-12.72,3.77-17.83l6.36-25.78h16.61l6.71,25.9q1.41,5.47,3.89,17.71h.47q2.23-11.41,3.77-17.71l6.36-25.9h15.31l-18.37,62.5H218.64l-7.06-29.83q-1.31-5.7-2.83-13.78h-.59a129.77,129.77,0,0,1-2.47,13.67l-7.43,29.94H181.54l-18.49-62.5"/><path class="cls-2" d="M310.13.79h16.13L310.4,87.6H294.27ZM247.59,111a34.09,34.09,0,0,1-5.24-1.34l2-11.69h5.89q4.95,0,5.89-5.24l9.32-54.26h-9.92l3.92-13.65h8.36l1-6.77a23.89,23.89,0,0,1,5.71-12.61Q279.09.38,287.46.38a32.2,32.2,0,0,1,6,.61,55,55,0,0,1,6.83,2.14L297.44,14h-6.68c-3.3,0-5.27,1.74-5.89,5.24l-.93,5.55h15.23l-3.45,13.65H281.59l-9.44,55.47a23.9,23.9,0,0,1-5.72,12.61q-4.53,5.06-12.89,5.06a32,32,0,0,1-5.95-.61"/><path class="cls-2" d="M364.32,70.39q4.32-4.53,5.47-13.94a47.35,47.35,0,0,0,.46-6.73q-.12-5.92-3.63-9.3t-9.72-3.36q-7.83,0-12.15,4.53t-5.47,13.93a46.06,46.06,0,0,0-.46,6.74q.12,5.92,3.63,9.29t9.73,3.37Q360,74.92,364.32,70.39ZM337,84.67a25,25,0,0,1-13.53-22.18,56.37,56.37,0,0,1,.81-10.1q2.3-13.71,10.59-21t22.91-7.32A30.1,30.1,0,0,1,372,27.3a24.92,24.92,0,0,1,13.58,22.18,56.4,56.4,0,0,1-.81,10.11q-2.29,13.71-10.64,21T351,87.93a29.43,29.43,0,0,1-14-3.26"/><path class="cls-2" d="M390.31,24.74h15.9l2.23,25.66q.36,4.17.71,17.95h.47q4.59-12.72,6.72-17.83l10.83-25.78h16.61l2.12,25.9q.47,5.47,1.06,17.71h.47q3.88-11.41,6.6-17.71l11-25.9h16l-29.33,62.5H435l-1.89-29.83q-.35-5.7-.35-13.78h-.59a121.3,121.3,0,0,1-4.83,13.67L414.57,87.24H397.84Z"/><path class="cls-1" d="M19.09,42.47c0-3,.86-5.27,2.63-6.88h0c1.78-1.62,4.53-2.44,8.15-2.44S36.25,34,38,35.6s2.63,3.85,2.63,6.87S39.8,47.74,38,49.34s-4.52,2.44-8.16,2.44-6.37-.8-8.16-2.39-2.62-3.83-2.62-6.92ZM42.54,68.75H22c-.35,0-.69,0-1,0l-.21,0A3.86,3.86,0,0,1,18.25,68a2.25,2.25,0,0,1-.83-1.85,2.14,2.14,0,0,1,.88-1.85,5,5,0,0,1,3-.78h9.13c8,0,14.37-1.88,18.86-5.6s6.88-9,6.88-15.48c0-5-.65-9.25-3.8-12.84a18.45,18.45,0,0,0,8.23-5A15.46,15.46,0,0,0,64.1,14.3V13.14H49l-.09,1A11.08,11.08,0,0,1,47.21,19a12,12,0,0,1-3.93,4.34,63.34,63.34,0,0,0-13.52-1.82c-8.16,0-14.63,1.86-19.23,5.54S3.47,36,3.47,42.47a20,20,0,0,0,2.31,9.58,18.84,18.84,0,0,0,4.61,5.57A17,17,0,0,0,5,60.74a9.32,9.32,0,0,0-3.35,7.34c0,3.84,1.63,7,5,9.66a23.59,23.59,0,0,0,9.64,4.69,38.85,38.85,0,0,0,9.83.4c1.33-.06,2.59-.12,3.83-.12H42.54a7.71,7.71,0,0,1,0,15.41H22a7.59,7.59,0,0,1-7.47-7.7,8,8,0,0,1,.56-2.89l.19-.52-.54-.11A24.31,24.31,0,0,1,10,85.45a22.71,22.71,0,0,1-6.31-4.14l-.5-.42-.27.61A21.93,21.93,0,0,0,1,90.42c0,12,9.44,21.67,21,21.67h20.5c11.6,0,21-9.72,21-21.67S54.14,68.75,42.54,68.75Z"/><path class="cls-1" d="M323.65,117.9c4.47-3.8,11.34-2.91,14.34,1.64a9.54,9.54,0,0,1,9.56-3.87c5,.71,7.87,4.19,8,9.62s.05,10.92.07,16.37c0,.48-.13.64-.62.63-2.08,0-4.16,0-6.25,0-.69,0-.64-.36-.64-.81,0-4.36,0-8.71,0-13.06a9.66,9.66,0,0,0-.57-3.65,3.79,3.79,0,0,0-3.81-2.56,3.69,3.69,0,0,0-3.64,2.78,9,9,0,0,0-.41,2.87c0,4.52,0,9,0,13.56,0,.72-.2.88-.89.87-1.85-.05-3.7-.07-5.55,0-.88,0-1.18-.16-1.17-1.12.06-4.49,0-9,0-13.46a10,10,0,0,0-.28-2.49,3.72,3.72,0,0,0-3.46-3,3.93,3.93,0,0,0-3.92,2.11,8.75,8.75,0,0,0-.79,4.39c0,4.22,0,8.44,0,12.66,0,.67-.12.93-.86.91-2-.06-4,0-5.95,0-.56,0-.75-.13-.75-.72q0-12.66,0-25.31c0-.6.21-.73.76-.72,1.64,0,3.29,0,4.93,0a1,1,0,0,1,1.16.81C323.16,116.88,323.42,117.37,323.65,117.9Z"/><path class="cls-1" d="M183.72,117.6c4.58-3.28,10.5-2.79,14.05,1.72,2.24-3,5.34-4,8.95-3.75,3.45.27,5.88,2.19,7.7,5a1.46,1.46,0,0,1,0,1.58,15.1,15.1,0,0,0,.48,14.24,1.83,1.83,0,0,1,.33.93c0,1.37,0,2.74,0,4.12,0,.46-.12.64-.62.64-2.22,0-4.44,0-6.65,0-.77,0-.57-.48-.57-.86,0-4.66,0-9.31,0-14a9.43,9.43,0,0,0-.09-1.6,3.82,3.82,0,0,0-3.88-3.25,4.3,4.3,0,0,0-3.92,3.68,9.79,9.79,0,0,0,0,1.21c0,4.65,0,9.3,0,14,0,.63-.13.87-.82.86q-3-.07-6,0c-.68,0-.82-.22-.81-.85q0-7.29,0-14.57a4.34,4.34,0,0,0-3.09-4.22,4.25,4.25,0,0,0-4.42,1.9,4.19,4.19,0,0,0-.61,2.39c0,4.76,0,9.51,0,14.27,0,.82-.17,1.08-1,1-2-.07-3.9,0-5.85,0-.58,0-.72-.17-.72-.73q0-12.56,0-25.11c0-.68.26-.75.82-.74,1.41,0,2.82.09,4.23,0a1.85,1.85,0,0,1,2.07,1.32C183.41,117.09,183.58,117.34,183.72,117.6Z"/><path class="cls-1" d="M466.45,129.42l4.1-9c.65-1.43,1.33-2.85,1.94-4.29a.82.82,0,0,1,.9-.59c2.48,0,5,0,7.61,0-.42,1-.79,1.81-1.18,2.67q-7.71,17-15.41,33.94a1.08,1.08,0,0,1-1.17.77c-2.44,0-4.88,0-7.44,0,1.35-3,2.66-5.88,4-8.76.77-1.71,1.52-3.42,2.34-5.11a1.69,1.69,0,0,0-.05-1.67q-5.19-10.27-10.35-20.59c-.18-.35-.35-.71-.51-1.06.22-.31.51-.18.75-.18,2.11,0,4.23.06,6.34,0a1.67,1.67,0,0,1,1.8,1.14C462.14,120.87,464.25,125,466.45,129.42Z"/><path class="cls-1" d="M425.43,128.82c0-4.09,0-8.17,0-12.26,0-.86.25-1.06,1.07-1q2.11.1,4.23,0c.88-.05,1.49.13,1.75,1s.66.89,1.46.43a11.48,11.48,0,0,1,10.18-.61c3.73,1.39,6,4.9,6,9.26,0,5.26,0,10.51,0,15.77,0,.72-.21.89-.9.87-1.88,0-3.76,0-5.64,0-.81,0-1.07-.15-1.06-1,.05-4.78,0-9.57,0-14.36,0-2.39-.91-3.78-2.88-4.41a5.3,5.3,0,0,0-5.89,1.66,5,5,0,0,0-.8,3.15c0,4.62,0,9.24,0,13.86,0,.83-.12,1.17-1.07,1.13-1.85-.1-3.7-.07-5.54,0-.74,0-1-.15-1-.93C425.45,137.19,425.43,133,425.43,128.82Z"/><path class="cls-1" d="M272.05,142.89a14.07,14.07,0,0,1-2.15-28,13.7,13.7,0,0,1,12.64,4.44c.47.5.42.75-.11,1.13q-2.07,1.52-4.07,3.12a.69.69,0,0,1-1.09,0,7.24,7.24,0,0,0-4.95-2.17,6.91,6.91,0,0,0-6.57,5.85c-.53,2.87,0,5.49,2.31,7.47,2.74,2.31,6.69,1.94,9.44-.86.53-.54.77-.55,1.28,0,1.13,1.2,2.32,2.34,3.51,3.46.41.39.43.63,0,1.06A13.61,13.61,0,0,1,272.05,142.89Z"/><path class="cls-1" d="M368,140.16v2.64c0,3.11,0,6.23,0,9.34,0,.59-.12.82-.77.8-2,0-4,0-6,0-.56,0-.75-.14-.75-.72q0-18,0-35.95c0-.57.17-.74.74-.73,1.64,0,3.29.1,4.93,0,1-.07,1.16.6,1.5,1.17.23.4.35.61.87.25a13.2,13.2,0,0,1,18.64,4c4,6.38,2.43,15.24-3.39,19.51a12.86,12.86,0,0,1-15.37-.1A3.41,3.41,0,0,0,368,140.16Zm6.91-3.94a7.41,7.41,0,0,0,.07-14.8c-4.39,0-6.89,2.64-6.89,7.32S370.77,136.21,375,136.22Z"/><path class="cls-1" d="M138.8,140.28a13,13,0,0,1-13.43,1.38c-4.29-1.9-6.31-5.64-7.36-10-1.46-6.06,1.83-13.21,7.39-15.71a13.5,13.5,0,0,1,12.74.63l.54.32V104.4c0-1.17.17-1.33,1.35-1.33,1.85,0,3.7,0,5.55,0,.57,0,.82.08.81.75,0,5.59,0,11.19,0,16.78a2.36,2.36,0,0,1-.3,1.14,15.17,15.17,0,0,0,.07,14.35,1.72,1.72,0,0,1,.23.76c0,1.57,0,3.15,0,4.72,0,.47-.14.65-.63.64-1.78,0-3.56-.07-5.34-.07a1,1,0,0,1-.88-.57C139.28,141.16,139.07,140.74,138.8,140.28Zm-6.62-18.53a6.8,6.8,0,0,0-6.84,7.11,6.9,6.9,0,0,0,6.82,7.08c3.94,0,6.49-2.82,6.49-7.09C138.65,124.31,136.33,121.76,132.18,121.75Z"/><path class="cls-1" d="M167.21,140a13,13,0,0,1-21.05-8.13,15,15,0,0,1,2.78-12.22,13.23,13.23,0,0,1,16-3.48,4.82,4.82,0,0,1,.69.41c.49.34,1,1,1.44,1s.39-1,.71-1.4a1.28,1.28,0,0,1,1.11-.58c1.71,0,3.42,0,5.13,0,.69,0,.55.42.55.79v11.35c0,4.55,0,9.1,0,13.65,0,.68-.15.93-.88.9-1.41-.06-2.82,0-4.23,0s-1.7-.11-2.09-1.57Zm-6.94-18.22a7.1,7.1,0,0,0,0,14.19c3.92,0,6.4-2.75,6.4-7.14S164.35,121.76,160.27,121.75Z"/><path class="cls-1" d="M235.79,140A12.92,12.92,0,0,1,215,132.61c-1.38-5.88-.14-11.22,4.77-15.08,4-3.12,8.55-3.58,13.3-1.64a7.27,7.27,0,0,1,2.17,1.42c.38.36.62.41.84-.19.59-1.6.61-1.6,2.3-1.6,1.31,0,2.62,0,3.93,0,.67,0,.92.11.91.85q0,12.51,0,25c0,.69-.22.84-.86.83-1.41,0-2.82,0-4.23,0-1.57,0-1.68-.08-2.08-1.56C236,140.43,235.88,140.24,235.79,140Zm-6.93-18.23a7.1,7.1,0,0,0,0,14.19c3.88,0,6.38-2.73,6.38-7C235.3,124.33,233,121.75,228.86,121.75Z"/><path class="cls-1" d="M97.5,118c.09-.21.17-.36.22-.52.58-1.92.58-1.92,2.53-1.92,1.25,0,2.49,0,3.73,0,.59,0,.81.11.81.76q0,12.6,0,25.2c0,.61-.14.81-.78.79-1.68,0-3.36,0-5,0-.52,0-.79-.11-.89-.66s-.36-1.35-.56-2.07c-3.45,4.49-12.33,4.3-17,.12-7.2-6.45-5.86-19,2.7-23.52a13,13,0,0,1,11.38-.35A8.25,8.25,0,0,1,97.5,118Zm-6.2,3.46a7.21,7.21,0,0,0-8,6,7.46,7.46,0,0,0,5.38,8.59c4.77,1,8.53-2.11,8.56-7.2C97.27,124.59,95.2,122,91.3,121.46Z"/><path class="cls-1" d="M413.45,118c.09-.21.17-.36.22-.52.57-1.92.57-1.92,2.53-1.92,1.24,0,2.49,0,3.73,0,.59,0,.81.11.81.76q0,12.6,0,25.2c0,.61-.15.81-.78.79-1.68,0-3.36,0-5,0-.51,0-.78-.11-.88-.67s-.36-1.34-.56-2.06c-3.46,4.49-12.34,4.3-17,.12-7.21-6.45-5.86-19,2.7-23.52a13,13,0,0,1,11.38-.35A8.34,8.34,0,0,1,413.45,118Zm-.39,9.17a6.29,6.29,0,0,0-3-4.84,7.24,7.24,0,0,0-10.32,3.58,7.33,7.33,0,0,0,6.9,10.29c2.89-.11,6.41-1.77,6.6-6.94A20.76,20.76,0,0,0,413.06,127.17Z"/><path class="cls-1" d="M312.31,128.84a14,14,0,1,1-28.06-.25,14,14,0,0,1,28.06.25ZM304,125.42c-1.07-2.15-2.67-3.73-5.17-4a5.82,5.82,0,0,0-5.6,2.9,8.09,8.09,0,0,0-.88,7.73,6.43,6.43,0,0,0,5.77,4.15c3.78.07,6.68-3,6.68-7.11A7.8,7.8,0,0,0,304,125.42Z"/></svg>